<mxfile modified="2021-08-12T13:06:26.505Z" host="app.diagrams.net" agent="5.0 (Macintosh; Intel Mac OS X 10_15_7) AppleWebKit/605.1.15 (KHTML, like Gecko) Version/14.1.2 Safari/605.1.15" etag="55JoZXlVdc1TvMOZm65S" version="14.9.3" type="github">
  <diagram id="Ht1M8jgEwFfnCIfOTk4-" name="Page-1">
    <mxGraphModel dx="1173" dy="685" grid="1" gridSize="10" guides="1" tooltips="1" connect="1" arrows="1" fold="1" page="1" pageScale="1" pageWidth="1169" pageHeight="827" math="0" shadow="0">
      <root>
        <mxCell id="0" />
        <mxCell id="1" parent="0" />
        <mxCell id="UEzPUAAOIrF-is8g5C7q-134" style="edgeStyle=orthogonalEdgeStyle;rounded=0;orthogonalLoop=1;jettySize=auto;html=1;startArrow=open;startFill=0;endArrow=open;endFill=0;strokeWidth=2;strokeColor=#808080;entryX=0;entryY=0.5;entryDx=0;entryDy=0;entryPerimeter=0;" parent="1" source="QBk_AV415ZBRU6Lw4hZX-2" edge="1">
          <mxGeometry relative="1" as="geometry">
            <Array as="points">
              <mxPoint x="320" y="377" />
              <mxPoint x="320" y="377" />
            </Array>
            <mxPoint x="390" y="376.5" as="targetPoint" />
          </mxGeometry>
        </mxCell>
        <mxCell id="UEzPUAAOIrF-is8g5C7q-142" style="edgeStyle=orthogonalEdgeStyle;rounded=0;orthogonalLoop=1;jettySize=auto;html=1;startArrow=open;startFill=0;endArrow=open;endFill=0;strokeWidth=2;strokeColor=#808080;" parent="1" target="QBk_AV415ZBRU6Lw4hZX-2" edge="1">
          <mxGeometry relative="1" as="geometry">
            <mxPoint x="108" y="376.5" as="sourcePoint" />
            <mxPoint x="590.5" y="386.5" as="targetPoint" />
            <Array as="points" />
          </mxGeometry>
        </mxCell>
        <mxCell id="UEzPUAAOIrF-is8g5C7q-116" value="Amazon S3" style="outlineConnect=0;fontColor=#232F3E;gradientColor=#60A337;gradientDirection=north;fillColor=#277116;strokeColor=#ffffff;dashed=0;verticalLabelPosition=bottom;verticalAlign=top;align=center;html=1;fontSize=12;fontStyle=0;aspect=fixed;shape=mxgraph.aws4.resourceIcon;resIcon=mxgraph.aws4.s3;labelBackgroundColor=#ffffff;" parent="1" vertex="1">
          <mxGeometry x="800.5000000000002" y="14.5" width="78" height="78" as="geometry" />
        </mxCell>
        <mxCell id="QBk_AV415ZBRU6Lw4hZX-2" value="" style="outlineConnect=0;fontColor=#232F3E;gradientColor=none;fillColor=#232F3E;strokeColor=none;dashed=0;verticalLabelPosition=bottom;verticalAlign=top;align=center;html=1;fontSize=12;fontStyle=0;aspect=fixed;pointerEvents=1;shape=mxgraph.aws4.internet_alt2;" parent="1" vertex="1">
          <mxGeometry x="190" y="337.5" width="78" height="78" as="geometry" />
        </mxCell>
        <mxCell id="QBk_AV415ZBRU6Lw4hZX-18" value="" style="group" parent="1" vertex="1" connectable="0">
          <mxGeometry x="800.5" y="120" width="78" height="100" as="geometry" />
        </mxCell>
        <mxCell id="QBk_AV415ZBRU6Lw4hZX-16" value="" style="points=[[0,0,0],[0.25,0,0],[0.5,0,0],[0.75,0,0],[1,0,0],[0,1,0],[0.25,1,0],[0.5,1,0],[0.75,1,0],[1,1,0],[0,0.25,0],[0,0.5,0],[0,0.75,0],[1,0.25,0],[1,0.5,0],[1,0.75,0]];outlineConnect=0;fontColor=#232F3E;gradientColor=#60A337;gradientDirection=north;fillColor=#277116;strokeColor=#ffffff;dashed=0;verticalLabelPosition=bottom;verticalAlign=top;align=center;html=1;fontSize=12;fontStyle=0;aspect=fixed;shape=mxgraph.aws4.resourceIcon;resIcon=mxgraph.aws4.glacier;" parent="QBk_AV415ZBRU6Lw4hZX-18" vertex="1">
          <mxGeometry width="78" height="78" as="geometry" />
        </mxCell>
        <mxCell id="QBk_AV415ZBRU6Lw4hZX-17" value="S3 Glacier" style="text;html=1;resizable=0;autosize=1;align=center;verticalAlign=middle;points=[];fillColor=none;strokeColor=none;rounded=0;" parent="QBk_AV415ZBRU6Lw4hZX-18" vertex="1">
          <mxGeometry x="4" y="80" width="70" height="20" as="geometry" />
        </mxCell>
        <mxCell id="QBk_AV415ZBRU6Lw4hZX-22" value="" style="group" parent="1" vertex="1" connectable="0">
          <mxGeometry x="800.5" y="230" width="78" height="107.5" as="geometry" />
        </mxCell>
        <mxCell id="QBk_AV415ZBRU6Lw4hZX-19" value="" style="points=[[0,0,0],[0.25,0,0],[0.5,0,0],[0.75,0,0],[1,0,0],[0,1,0],[0.25,1,0],[0.5,1,0],[0.75,1,0],[1,1,0],[0,0.25,0],[0,0.5,0],[0,0.75,0],[1,0.25,0],[1,0.5,0],[1,0.75,0]];outlineConnect=0;fontColor=#232F3E;gradientColor=#60A337;gradientDirection=north;fillColor=#277116;strokeColor=#ffffff;dashed=0;verticalLabelPosition=bottom;verticalAlign=top;align=center;html=1;fontSize=12;fontStyle=0;aspect=fixed;shape=mxgraph.aws4.resourceIcon;resIcon=mxgraph.aws4.elastic_block_store;" parent="QBk_AV415ZBRU6Lw4hZX-22" vertex="1">
          <mxGeometry width="78" height="78" as="geometry" />
        </mxCell>
        <mxCell id="QBk_AV415ZBRU6Lw4hZX-20" value="EBS" style="text;html=1;resizable=0;autosize=1;align=center;verticalAlign=middle;points=[];fillColor=none;strokeColor=none;rounded=0;" parent="QBk_AV415ZBRU6Lw4hZX-22" vertex="1">
          <mxGeometry x="19" y="87.5" width="40" height="20" as="geometry" />
        </mxCell>
        <mxCell id="QBk_AV415ZBRU6Lw4hZX-27" value="" style="group" parent="1" vertex="1" connectable="0">
          <mxGeometry x="600" y="338" width="78" height="108" as="geometry" />
        </mxCell>
        <mxCell id="QBk_AV415ZBRU6Lw4hZX-25" value="" style="points=[[0,0,0],[0.25,0,0],[0.5,0,0],[0.75,0,0],[1,0,0],[0,1,0],[0.25,1,0],[0.5,1,0],[0.75,1,0],[1,1,0],[0,0.25,0],[0,0.5,0],[0,0.75,0],[1,0.25,0],[1,0.5,0],[1,0.75,0]];outlineConnect=0;fontColor=#232F3E;gradientColor=#F78E04;gradientDirection=north;fillColor=#D05C17;strokeColor=#ffffff;dashed=0;verticalLabelPosition=bottom;verticalAlign=top;align=center;html=1;fontSize=12;fontStyle=0;aspect=fixed;shape=mxgraph.aws4.resourceIcon;resIcon=mxgraph.aws4.elastic_beanstalk;" parent="QBk_AV415ZBRU6Lw4hZX-27" vertex="1">
          <mxGeometry y="3" width="78" height="78" as="geometry" />
        </mxCell>
        <mxCell id="QBk_AV415ZBRU6Lw4hZX-26" value="Beanstalk" style="text;html=1;resizable=0;autosize=1;align=center;verticalAlign=middle;points=[];fillColor=none;strokeColor=none;rounded=0;" parent="QBk_AV415ZBRU6Lw4hZX-27" vertex="1">
          <mxGeometry x="4" y="88" width="70" height="20" as="geometry" />
        </mxCell>
        <mxCell id="QBk_AV415ZBRU6Lw4hZX-41" value="" style="group" parent="1" vertex="1" connectable="0">
          <mxGeometry x="764.5" y="740" width="150" height="107" as="geometry" />
        </mxCell>
        <mxCell id="QBk_AV415ZBRU6Lw4hZX-37" value="" style="points=[[0,0,0],[0.25,0,0],[0.5,0,0],[0.75,0,0],[1,0,0],[0,1,0],[0.25,1,0],[0.5,1,0],[0.75,1,0],[1,1,0],[0,0.25,0],[0,0.5,0],[0,0.75,0],[1,0.25,0],[1,0.5,0],[1,0.75,0]];outlineConnect=0;fontColor=#232F3E;gradientColor=#F54749;gradientDirection=north;fillColor=#C7131F;strokeColor=#ffffff;dashed=0;verticalLabelPosition=bottom;verticalAlign=top;align=center;html=1;fontSize=12;fontStyle=0;aspect=fixed;shape=mxgraph.aws4.resourceIcon;resIcon=mxgraph.aws4.key_management_service;" parent="QBk_AV415ZBRU6Lw4hZX-41" vertex="1">
          <mxGeometry x="36" width="78" height="78" as="geometry" />
        </mxCell>
        <mxCell id="QBk_AV415ZBRU6Lw4hZX-40" value="Key Management Service" style="text;html=1;resizable=0;autosize=1;align=center;verticalAlign=middle;points=[];fillColor=none;strokeColor=none;rounded=0;" parent="QBk_AV415ZBRU6Lw4hZX-41" vertex="1">
          <mxGeometry y="87" width="150" height="20" as="geometry" />
        </mxCell>
        <mxCell id="QBk_AV415ZBRU6Lw4hZX-43" value="" style="points=[[0,0,0],[0.25,0,0],[0.5,0,0],[0.75,0,0],[1,0,0],[0,1,0],[0.25,1,0],[0.5,1,0],[0.75,1,0],[1,1,0],[0,0.25,0],[0,0.5,0],[0,0.75,0],[1,0.25,0],[1,0.5,0],[1,0.75,0]];outlineConnect=0;fontColor=#232F3E;gradientColor=#4D72F3;gradientDirection=north;fillColor=#3334B9;strokeColor=#ffffff;dashed=0;verticalLabelPosition=bottom;verticalAlign=top;align=center;html=1;fontSize=12;fontStyle=0;aspect=fixed;shape=mxgraph.aws4.resourceIcon;resIcon=mxgraph.aws4.database;" parent="1" vertex="1">
          <mxGeometry x="596" y="530" width="78" height="78" as="geometry" />
        </mxCell>
        <mxCell id="QBk_AV415ZBRU6Lw4hZX-44" value="Mysql" style="text;html=1;resizable=0;autosize=1;align=center;verticalAlign=middle;points=[];fillColor=none;strokeColor=none;rounded=0;" parent="1" vertex="1">
          <mxGeometry x="814.5" y="960" width="50" height="20" as="geometry" />
        </mxCell>
        <mxCell id="oZ4yjUbmPkhB_Nb1Ovhc-4" value="" style="group" vertex="1" connectable="0" parent="1">
          <mxGeometry x="20" y="338" width="78" height="112" as="geometry" />
        </mxCell>
        <mxCell id="oZ4yjUbmPkhB_Nb1Ovhc-2" value="" style="outlineConnect=0;fontColor=#232F3E;gradientColor=none;fillColor=#232F3E;strokeColor=none;dashed=0;verticalLabelPosition=bottom;verticalAlign=top;align=center;html=1;fontSize=12;fontStyle=0;aspect=fixed;pointerEvents=1;shape=mxgraph.aws4.users;" vertex="1" parent="oZ4yjUbmPkhB_Nb1Ovhc-4">
          <mxGeometry width="78" height="78" as="geometry" />
        </mxCell>
        <mxCell id="oZ4yjUbmPkhB_Nb1Ovhc-3" value="Users" style="text;html=1;resizable=0;autosize=1;align=center;verticalAlign=middle;points=[];fillColor=none;strokeColor=none;rounded=0;" vertex="1" parent="oZ4yjUbmPkhB_Nb1Ovhc-4">
          <mxGeometry x="14" y="92" width="50" height="20" as="geometry" />
        </mxCell>
        <mxCell id="oZ4yjUbmPkhB_Nb1Ovhc-5" value="" style="group" vertex="1" connectable="0" parent="1">
          <mxGeometry x="390" y="340" width="78" height="108" as="geometry" />
        </mxCell>
        <mxCell id="oZ4yjUbmPkhB_Nb1Ovhc-6" value="" style="points=[[0,0,0],[0.25,0,0],[0.5,0,0],[0.75,0,0],[1,0,0],[0,1,0],[0.25,1,0],[0.5,1,0],[0.75,1,0],[1,1,0],[0,0.25,0],[0,0.5,0],[0,0.75,0],[1,0.25,0],[1,0.5,0],[1,0.75,0]];outlineConnect=0;fontColor=#232F3E;gradientColor=#945DF2;gradientDirection=north;fillColor=#5A30B5;strokeColor=#ffffff;dashed=0;verticalLabelPosition=bottom;verticalAlign=top;align=center;html=1;fontSize=12;fontStyle=0;aspect=fixed;shape=mxgraph.aws4.resourceIcon;resIcon=mxgraph.aws4.cloudfront;" vertex="1" parent="oZ4yjUbmPkhB_Nb1Ovhc-5">
          <mxGeometry width="78" height="78" as="geometry" />
        </mxCell>
        <mxCell id="oZ4yjUbmPkhB_Nb1Ovhc-7" value="CloudFront" style="text;html=1;resizable=0;autosize=1;align=center;verticalAlign=middle;points=[];fillColor=none;strokeColor=none;rounded=0;" vertex="1" parent="oZ4yjUbmPkhB_Nb1Ovhc-5">
          <mxGeometry x="4" y="88" width="70" height="20" as="geometry" />
        </mxCell>
        <mxCell id="oZ4yjUbmPkhB_Nb1Ovhc-8" value="" style="group" vertex="1" connectable="0" parent="1">
          <mxGeometry x="370" y="550" width="120" height="110" as="geometry" />
        </mxCell>
        <mxCell id="oZ4yjUbmPkhB_Nb1Ovhc-9" value="" style="points=[[0,0,0],[0.25,0,0],[0.5,0,0],[0.75,0,0],[1,0,0],[0,1,0],[0.25,1,0],[0.5,1,0],[0.75,1,0],[1,1,0],[0,0.25,0],[0,0.5,0],[0,0.75,0],[1,0.25,0],[1,0.5,0],[1,0.75,0]];outlineConnect=0;fontColor=#232F3E;gradientColor=#F54749;gradientDirection=north;fillColor=#C7131F;strokeColor=#ffffff;dashed=0;verticalLabelPosition=bottom;verticalAlign=top;align=center;html=1;fontSize=12;fontStyle=0;aspect=fixed;shape=mxgraph.aws4.resourceIcon;resIcon=mxgraph.aws4.certificate_manager_3;" vertex="1" parent="oZ4yjUbmPkhB_Nb1Ovhc-8">
          <mxGeometry x="21" width="78" height="78" as="geometry" />
        </mxCell>
        <mxCell id="oZ4yjUbmPkhB_Nb1Ovhc-10" value="Certificate Manager" style="text;html=1;resizable=0;autosize=1;align=center;verticalAlign=middle;points=[];fillColor=none;strokeColor=none;rounded=0;" vertex="1" parent="oZ4yjUbmPkhB_Nb1Ovhc-8">
          <mxGeometry y="90" width="120" height="20" as="geometry" />
        </mxCell>
        <mxCell id="oZ4yjUbmPkhB_Nb1Ovhc-11" value="" style="edgeStyle=orthogonalEdgeStyle;html=1;endArrow=block;elbow=vertical;startArrow=none;endFill=1;strokeColor=#545B64;rounded=0;entryX=0.5;entryY=0;entryDx=0;entryDy=0;entryPerimeter=0;" edge="1" parent="1" target="oZ4yjUbmPkhB_Nb1Ovhc-9">
          <mxGeometry width="100" relative="1" as="geometry">
            <mxPoint x="430" y="450" as="sourcePoint" />
            <mxPoint x="530" y="450" as="targetPoint" />
          </mxGeometry>
        </mxCell>
        <mxCell id="oZ4yjUbmPkhB_Nb1Ovhc-12" value="" style="edgeStyle=orthogonalEdgeStyle;html=1;endArrow=block;elbow=vertical;startArrow=none;endFill=1;strokeColor=#545B64;rounded=0;" edge="1" parent="1" target="QBk_AV415ZBRU6Lw4hZX-25">
          <mxGeometry width="100" relative="1" as="geometry">
            <mxPoint x="470" y="380" as="sourcePoint" />
            <mxPoint x="570" y="380" as="targetPoint" />
          </mxGeometry>
        </mxCell>
        <mxCell id="oZ4yjUbmPkhB_Nb1Ovhc-14" value="" style="edgeStyle=orthogonalEdgeStyle;html=1;endArrow=block;elbow=vertical;startArrow=none;endFill=1;strokeColor=#545B64;rounded=0;exitX=0.443;exitY=1.25;exitDx=0;exitDy=0;exitPerimeter=0;entryX=0.5;entryY=0;entryDx=0;entryDy=0;entryPerimeter=0;" edge="1" parent="1" source="QBk_AV415ZBRU6Lw4hZX-26" target="QBk_AV415ZBRU6Lw4hZX-43">
          <mxGeometry width="100" relative="1" as="geometry">
            <mxPoint x="670" y="500" as="sourcePoint" />
            <mxPoint x="770" y="500" as="targetPoint" />
          </mxGeometry>
        </mxCell>
      </root>
    </mxGraphModel>
  </diagram>
</mxfile>
